<svg id="svg" xmlns="http://www.w3.org/2000/svg" xmlns:xlink="http://www.w3.org/1999/xlink" width="400" height="335.30997304582206" viewBox="0, 0, 400,335.30997304582206"><g id="svgg"><path id="path0" d="M171.968 50.326 C 109.116 52.895,68.638 67.598,63.695 89.655 C 50.097 150.332,80.516 212.529,137.466 240.492 C 179.133 260.950,245.563 248.873,268.492 216.672 C 269.743 214.915,271.415 213.477,272.208 213.477 C 273.001 213.477,274.929 211.294,276.493 208.625 C 278.057 205.957,279.812 203.774,280.393 203.774 C 280.974 203.774,282.773 201.704,284.390 199.174 C 286.008 196.644,288.587 192.884,290.123 190.818 C 300.427 176.951,308.325 145.526,308.343 118.319 L 308.356 99.173 314.555 99.829 C 338.346 102.347,349.818 113.010,349.850 132.637 C 349.879 150.179,341.482 161.068,321.605 169.265 C 308.786 174.551,302.706 183.543,308.628 188.458 C 315.263 193.964,345.186 175.919,355.638 160.108 C 357.206 157.736,359.031 155.310,359.694 154.717 C 366.803 148.358,368.365 125.419,362.521 113.194 C 353.917 95.197,329.286 81.194,312.474 84.742 L 307.867 85.714 300.295 78.167 C 287.407 65.323,270.189 58.721,236.983 53.893 C 223.383 51.916,189.710 49.385,182.749 49.817 C 180.970 49.928,176.119 50.157,171.968 50.326 M221.024 68.018 C 253.258 71.035,281.703 79.145,286.162 86.588 C 290.353 93.585,261.208 102.476,216.251 107.914 C 180.146 112.282,97.293 101.468,83.925 90.643 L 81.420 88.615 83.567 86.190 C 96.197 71.925,165.240 62.797,221.024 68.018 M292.929 121.563 C 290.661 176.243,264.429 216.743,222.642 230.082 C 151.141 252.905,84.130 204.548,78.527 126.085 C 77.135 106.588,77.218 106.227,82.622 108.485 C 106.679 118.537,169.637 126.707,203.175 124.130 C 246.094 120.832,271.197 115.965,286.279 108.015 C 293.807 104.048,293.668 103.764,292.929 121.563 M107.895 146.237 C 100.165 156.064,125.348 182.497,150.373 190.825 C 185.822 202.622,236.024 195.766,254.483 176.607 C 262.295 168.498,262.985 165.620,258.272 160.802 C 255.118 157.578,253.194 158.149,244.338 164.937 C 227.479 177.859,205.548 183.070,180.643 180.071 C 154.356 176.905,137.888 168.706,121.860 150.805 C 114.415 142.489,111.574 141.560,107.895 146.237 M293.980 226.875 C 293.273 228.718,295.980 231.356,296.957 229.777 C 297.790 228.428,302.784 229.306,305.930 231.354 C 308.077 232.752,308.903 235.202,308.476 238.910 C 308.402 239.555,309.315 240.965,310.505 242.042 C 321.187 251.709,283.496 266.616,238.275 270.609 C 230.863 271.263,218.990 272.504,211.892 273.366 C 194.133 275.522,160.723 274.264,152.127 271.115 C 151.295 270.811,140.009 268.888,127.046 266.842 C 76.340 258.841,61.430 252.878,64.588 241.864 C 68.551 228.047,54.617 227.117,47.611 240.732 C 43.986 247.777,45.302 252.113,53.383 259.756 C 58.674 264.760,72.919 272.776,76.520 272.776 C 77.174 272.776,81.994 274.431,87.232 276.454 C 97.801 280.536,112.544 283.756,132.075 286.249 C 139.191 287.158,150.350 288.679,156.873 289.631 C 208.811 297.205,315.076 278.007,323.270 259.569 C 323.468 259.124,324.103 258.760,324.682 258.760 C 325.260 258.760,325.391 259.367,324.973 260.108 C 324.455 261.024,324.574 261.111,325.343 260.377 C 329.434 256.477,330.838 244.646,327.801 239.666 C 322.498 230.969,296.222 221.032,293.980 226.875 " stroke="none" fill="#000000" fill-rule="evenodd"></path></g></svg>